# xmcd
#
# Track frame offsets: 
#        150
#        20913
#        44238
#        64338
#        85863
#        105063
#        114813
#        140013
#        163788
#
# Disc length: 2458 seconds
#
# Revision: 7
# Processed by: cddbd v1.5.2PL0 Copyright (c) Steve Scherf et al.
# Submitted via: ExactAudioCopy v1.3
#
DISCID=78099809
DTITLE=Various Artist - Kasak
DYEAR=2005
DGENRE=Hindi Film OST
TTITLE0=Lucky Ali - Jaana Hai Jaana Hai (male, part 1)
TTITLE1=Shreya Ghoshal - Saansein Madham Hain
TTITLE2=M. M. Kreem - Todh Diya
TTITLE3=Lucky Ali and Sunidhi Chauhan - Yeh Zindagi
TTITLE4=Madhushree - Jaana Hai Jaana Hai (female)
TTITLE5=M. M. Kreem - Bechainiyon Mein Lamha
TTITLE6=Lucky Ali and Anuradha Paudwal - Chandni Hai Khoyee Khoyee
TTITLE7=Gayatri Iyer - Main Na Janoo Kaisi Kasak Hai
TTITLE8=Jagjit Singh - Jaana Hai Jaana Hai (male, part 2)
EXTD=Info from http://www.kaustubh.com
EXTT0=
EXTT1=
EXTT2=
EXTT3=
EXTT4=
EXTT5=
EXTT6=
EXTT7=
EXTT8=
PLAYORDER=
